# xmcd CD database file
#
# Track frame offsets:
#	150
#	24166
#	42449
#	60547
#	78872
#	98312
#	120728
#	139262
#	160067
#	179792
#	200214
#	218061
#
# Disc length: 3151 seconds
#
# Revision: 0
# Processed by: cddbd v1.5.1PL0 Copyright (c) Steve Scherf et al.
# Submitted via: CDex 1.51
#
DISCID=a00c4d0c
DTITLE=Various Artist - The Down and Dirty
DYEAR=2004
DGENRE=Jazz
TTITLE0=Gege Telesforo - Inside Straight
TTITLE1=Ben Sidran - I'm Not Talking
TTITLE2=Phat Phunktion - You and Me
TTITLE3=Charlie Wood - Back to Where It Was Before
TTITLE4=Clyde Stubblefield - The Original
TTITLE5=Dario Deidda - 3 From the Ghetto
TTITLE6=Gege Telesforo - Mumbles
TTITLE7=Ben Sidran - Like a Boat on the Water
TTITLE8=Joy and the Boy - Let's Get It On
TTITLE9=Leo Sidran - Conversation
TTITLE10=Gege Telesforo - Looky Here
TTITLE11=Phil Upchurch - I Don't Want Nobody to Give Me Nothin' (feat. Clyde Stubblefield, Rosie Gaines, Fred Wesley, Pee Wee Ellis, and Maceo Parker)
EXTD=YEAR: 2004
EXTT0=
EXTT1=
EXTT2=
EXTT3=
EXTT4=
EXTT5=
EXTT6=
EXTT7=
EXTT8=
EXTT9=
EXTT10=
EXTT11=
PLAYORDER=
